<?xml version="1.0" encoding="UTF-8"?>
<svg width="752pt" height="752pt" version="1.1" viewBox="0 0 752 752" xmlns="http://www.w3.org/2000/svg">
 <g fill="#fff">
  <path d="m313.4 417.13c-4.7305 0.46484-9.3242 2.207-11.789 3.2617-1.7109 0.69922-4.8906 2.0039-5.4883 6.0898-0.69141 4.0273 0.68359 8.5664 2.1016 12.449 0.73438 2.043 3.5664 8.9688 9.0078 12.281 2.6836 1.7148 5.8867 2.7148 10.105 3.1406 1.1602 0.10938 2.4219 0.17969 3.7188 0.17969 4.1445 0 9.9453-0.71484 13.855-3.9844 0.38672-0.28516 0.75781-0.59375 1.0625-0.89062 7.2695-7.3438 2.2109-20.5-2.5664-25.52-4.9141-5.0938-12.477-7.7461-20.008-7.0078zm15.668 25.98c-1.4922 1.2422-4.4102 1.9492-8.0039 1.9492-0.98438 0-1.9414-0.050781-2.793-0.13281-2.6602-0.26953-4.543-0.80469-6.0195-1.7461-1.8281-1.1133-3.9297-4.1836-5.1211-7.4883-1.0664-2.8945-1.6367-5.0977-1.7031-6.6289 0.023437-0.007812 0.050781-0.019531 0.074218-0.03125 2.8398-1.2227 5.7461-2.0234 8.1602-2.3438-2.5781 1.4453-4.3477 4.1719-4.3477 7.3281 0 4.6875 3.7891 8.4766 8.4297 8.4766 4.6875 0 8.4766-3.7891 8.4766-8.4766 0-1.8086-0.58594-3.4766-1.5664-4.8555 0.68359 0.47266 1.3633 0.95313 1.9258 1.5352 2.8086 2.9453 4.7617 10.184 2.4883 12.414z"/>
  <path d="m386.76 414.68c-2.668 3.5312-4.2656 7.8477-4.6367 12.512-0.33594 4.793 0.082031 11.043 4.0078 13.598 3.3984 2.1914 7.543 3.3516 11.988 3.3516 3.9453 0 8.0234-0.89062 11.816-2.5898 3.6406-1.6562 6.5352-3.7656 8.6367-6.3086 2.3633-2.9258 3.8984-6.6406 4.5664-11.129 2.0508-15.824-0.98047-16.641-3.457-17.312-14.676-3.8242-26.246-1.0039-32.922 7.8789zm26.988 8.1172c-0.39844 2.668-1.2852 4.9102-2.5195 6.4453-1.1445 1.3828-2.9023 2.625-5.1992 3.6641-4.8398 2.168-10.473 2.3125-14.145 0.28906-0.28125-1.0195-0.46484-3.2773-0.31641-5.3047 0.22266-2.8242 1.1758-5.4219 2.7578-7.5195 1.1133-1.4805 2.4727-2.6484 4.0195-3.5625-1.6719 1.5469-2.7383 3.7461-2.7383 6.207 0 4.6406 3.7891 8.4297 8.4766 8.4297 4.6406 0 8.4297-3.7891 8.4297-8.4297 0-4.2227-3.082-7.6914-7.0859-8.3398 2.6172-0.22656 5.5391-0.050782 8.8008 0.57812-0.050781 2.6172-0.33203 6.3984-0.48047 7.543z"/>
  <path d="m508.08 490.44c-3.5-5.5469-7.1172-11.277-9.2109-16.273-1.7031-4.125-1.5469-19.738-1.4062-33.516 0.15625-15.527 0.31641-31.586-1.5898-41.141-3.6172-18.09-25.508-74.688-27.738-80.434-0.49609-4.2383-0.90625-7.8242-0.92187-7.832-0.046876-2.6914-0.49219-24.996-2.1914-31.512-1.8359-6.8633-9.7695-20.066-17.02-24.262-7.625-4.3047-19.133 1.2266-21.367 2.3789-0.25391 0.13281-0.49609 0.28906-0.72266 0.46484-0.31641 0.24609-7.9141 6.1953-19.184 19.578-2.4023 2.8398-5.125 7.0391-8.0781 12.359-2.0117-0.19922-4.2422-0.21875-6.7812-0.0625-0.21484 0.015625-0.38672 0.11719-0.59375 0.15625l-5.168-110.63c0.03125-0.55859 0.015625-1.0898-0.039063-1.5586-1.2109-8.0859-14.652-12.914-35.949-12.914-7.5352 0-15.512 0.61719-23.703 1.8281-27.527 4.0352-55.793 15.156-53.953 27.844 0.007812 0.058594 0.03125 0.10938 0.042968 0.16406 0.003906 0.019531-0.003906 0.03125 0 0.050781l26.195 104.19c0.003906 0.023438 0 0.042969 0.003906 0.066407l1.1367 4.4766c-0.24219 0.003907-0.47266-0.058593-0.71875-0.007812l-0.98828 0.1875c-3.6758 0.69531-5.5547 1.0781-8.2539 1.9648l-10.945-2.5117-2.8984-1.8945c-0.14062-0.09375-0.29297-0.17969-0.44531-0.26172-10.145-5.1602-34.559-16.086-42.23-6.0586-8.0703 10.488-0.58594 22.738-0.24609 23.281l20.926 33.004c0.64453 1.0195 0.97656 2.1602 0.97656 3.3867v4.6875c0 3.1523 0.59375 6.2305 1.7422 9.1055l4.9727 12.762c0.33594 0.78906 0.37891 1.7305 0.14844 2.5781-1.8477 6.375-7.7812 28.938-6.7148 51.641 1.0273 22.141 16.375 39.922 23.438 46.973-4.3711 5.2852-11.574 14.812-13.285 22.184-0.42188 1.8516-0.80469 3.8203-1.1992 5.8359-1.2852 6.5508-2.875 14.699-6.0078 17.586-2.2461 2.0703-6.1328 5.9141-10.031 9.7695-4.1836 4.1445-9.9102 9.8125-10.711 10.457-2.3125 1.2227-3.1953 4.0859-1.9766 6.4023 0.85156 1.6055 2.4922 2.5234 4.1914 2.5234 0.75 0 1.5-0.17578 2.207-0.55078 1.332-0.69922 3.2617-2.5156 12.949-12.102 3.8047-3.7656 7.5898-7.5156 9.7812-9.5312 5.4219-4.9883 7.1836-14.008 8.8906-22.738 0.375-1.918 0.74219-3.7969 1.1367-5.5352 1.0703-4.6016 6.2812-12.082 11.105-17.953 0.55078 1.1602 1.6758 2.0078 3.0469 2.0586l19.379 0.69531c0.83984 2.7344 1.8281 5.293 2.9609 7.6719l-29.996 7.2188c-1.9102 0.46094-3.082 2.3711-2.625 4.2812 0.39453 1.6289 1.8477 2.7227 3.4531 2.7227 0.27344 0 0.55469-0.03125 0.83203-0.097656l32.09-7.7188c1.7422 2.4766 3.6836 4.6094 5.8281 6.375l-21.762 12.883c-1.6875 1-2.2461 3.1758-1.2461 4.8633 0.66406 1.1172 1.8477 1.7422 3.0586 1.7422 0.61719 0 1.2422-0.16016 1.8086-0.49609l25.012-14.805c1.4141 0.55469 2.8359 1.0117 4.3242 1.3242 3.4336 0.71484 6.7617 1.0742 9.9219 1.0742 0.50781 0 0.99609-0.042969 1.4961-0.0625 8.3359 5.75 16.684 8.6992 24.828 8.6992 14.242 0 23.258-8.4062 27.25-13.18 1.9766-0.53125 3.8867-1.1992 5.6602-2.0977 0.70703-0.35547 1.375-0.73438 2.0156-1.0977l39.16 14.961c0.41797 0.16016 0.84375 0.23047 1.2656 0.23047 1.4297 0 2.7812-0.87109 3.3203-2.2891 0.69531-1.832-0.21875-3.8828-2.0547-4.5859l-34.746-13.273c3.082-2.6719 5.5508-5.6719 7.375-8.9844h39.512c1.9609 0 3.5508-1.5898 3.5508-3.5508s-1.5898-3.5508-3.5508-3.5508h-36.598c0.64062-2.3672 1.0117-4.5977 1.2109-6.6172l31.973-9.7852c1.875-0.57422 2.9297-2.5625 2.3594-4.4375-0.57422-1.875-2.5664-2.9375-4.4375-2.3594l-29.125 8.9141 0.20703-2.1172c0.25391-2.6055-1.6484-4.9219-4.2461-5.1758-2.5781-0.25391-4.9219 1.6484-5.1758 4.2461l-0.59766 6.0469-6.7188 2.0547c-1.875 0.57422-2.9258 2.5625-2.3555 4.4375 0.46875 1.5234 1.875 2.5117 3.3906 2.5117 0.34766 0 0.69531-0.050782 1.0469-0.15625l3.6133-1.1016c-0.26563 1.1602-0.64453 2.3438-1.1172 3.5391h-8.7461c-1.9609 0-3.5508 1.5898-3.5508 3.5508s1.5898 3.5508 3.5508 3.5508h4.2383c-1.7148 1.8281-3.7969 3.4805-6.2656 4.9883l-6.3711-2.4336c-1.832-0.69922-3.8828 0.21875-4.5859 2.0508-0.56641 1.4883-0.03125 3.0781 1.1523 4.0156-8.4883 0.88281-16.984-3.1484-20.855-5.3281l6.6875-7.0898c1.4062-1.4727 1.9648-3.543 1.4805-5.5352-0.49219-2.0117-1.9453-3.6133-3.9062-4.2891-2.8398-0.94531-5.8164-1.2969-9.0391-0.98437-4.2773 0.35156-7.8789 1.5-10.688 3.418-1.5195 1.0117-2.4727 2.6484-2.6094 4.4844-0.14063 1.8711 0.58203 3.6719 1.9883 4.9492l6.7109 5.9844c-1.0078 1.6211-5.1562 7.1445-15.16 7.8633-1.4961 0.12891-3.0703 0.11328-4.6797 0.007813l0.49219-0.29297c1.6875-1 2.2383-3.1758 1.2344-4.8672-1-1.6875-3.1758-2.2383-4.8672-1.2344l-6.8867 4.0781c-1.6484-0.88281-3.1875-2.0547-4.6094-3.5234l6.7539-1.625c1.9102-0.46094 3.0781-2.3789 2.6172-4.2852-0.46094-1.9102-2.3711-3.0742-4.2852-2.6172l-9.5586 2.3008c-0.84375-1.5586-1.6055-3.25-2.293-5.0352l8.6758 0.3125h0.125c1.9023 0 3.4805-1.5117 3.5469-3.4297 0.066406-1.9609-1.4688-3.6055-3.4297-3.6719l-11.039-0.39844c-0.003906-0.019531-0.015625-0.066406-0.015625-0.070312-0.49219-2.5664-2.9883-4.2383-5.5352-3.7539-1.8672 0.35547-3.2344 1.7695-3.6758 3.4961l-17.324-0.625c0.24219-0.62891 0.37109-1.2969 0.32812-1.9844-0.085938-1.2852-0.68359-2.4766-1.6641-3.3047-0.22266-0.1875-22.453-19.309-23.574-43.445-0.99609-21.25 4.6133-42.543 6.3711-48.629 0.80859-2.9492 0.62109-6.0859-0.48828-8.7031l-4.9375-12.688c-0.71484-1.7891-1.0781-3.6836-1.0781-5.625v-4.6875c0-3.0039-0.84375-5.9258-2.4453-8.457l-20.918-32.98c-0.042969-0.070313-4.3008-7.207-0.26953-12.457 2.1484-1.9648 16.059 1.4492 30.199 8.6055l3.3398 2.1797c0.023437 0.015625 0.046875 0.015625 0.070313 0.027344 0 0 0 0.003906 0.003906 0.003906 1.3164 0.87109 2.9375 1.9453 4.7109 3.1406-4.7305 6.1602-5.3438 11.598-4.8008 15.344 1.4258 9.5938 10.992 17.031 26.938 20.934 8.1211 1.9883 17.5 2.9883 27.539 2.9883 7.957 0 16.332-0.62891 24.824-1.8906 29.309-4.2891 53.59-15.156 63.363-28.348 3.6875-4.9805 5.2344-10.289 4.4766-15.301-1.2188-8.7227-6.918-12.98-13.527-15.816 2.2227-3.8594 4.2305-6.875 5.9727-8.9375 9.2734-11.016 15.902-16.695 17.422-17.945 4.1641-2.043 9.9453-3.4922 11.91-2.3672 4.2734 2.4727 11.145 13.129 12.57 18.457 1.0664 4.082 1.7188 20.133 1.9102 29.734 0 0 0.47266 4.2305 1.0508 9.125l0.070312 0.55469c0.68359 5.2461 1.3828 10.668 1.8203 12.828 0.27344 2.0508-1.6328 10.711-3.5938 17.512-0.72266 2.5156 0.73047 5.1367 3.2383 5.8633 0.44141 0.12891 0.88281 0.18359 1.3125 0.18359 2.0586 0 3.9492-1.3516 4.5469-3.4258 0.55469-1.9336 1.3789-4.9219 2.125-8.1328 7.1289 19.215 16.137 44.48 18.227 54.969 1.7148 8.582 1.5547 24.84 1.4062 39.184-0.19922 19.422-0.19922 31.605 2.1367 37.246 2.4023 5.75 6.2383 11.82 9.9492 17.691 2.8398 4.5 5.5273 8.7461 6.9492 11.938 3.707 8.4062 7.1406 27.719 5.4414 35.215-0.57812 2.5508 1.0234 5.0859 3.5742 5.6641 0.35156 0.082031 0.69922 0.11328 1.0508 0.11328 2.1641 0 4.1211-1.4922 4.6172-3.6875 2.3828-10.539-1.9414-31.875-6.0234-41.145-1.7031-3.8008-4.5664-8.3281-7.5938-13.125zm-142.84 18.91c3.4414 1.8438 8.8359 4.2305 15.031 5.3789-3.2578 1.8594-7.3008 3.3008-12.223 3.3008-3.9297 0-7.7148-1-11.137-2.4258 3.8008-1.8633 6.5312-4.2266 8.3281-6.2539zm-29.496-196.26c3.8828 0 7.9375-0.28516 12.09-0.89844 19.156-2.8047 31.941-10.973 38.82-18.812l0.48438 10.008c0 0.042969 0.023437 0.074219 0.027343 0.11328 0.003907 0.039062-0.015624 0.074218-0.003906 0.11328 0.23828 1.5664-0.32031 3.2734-1.6641 5.082-5.0781 6.8477-19.516 13.066-35.934 15.473-16.406 2.4375-32.023 0.64844-38.871-4.4531-1.8242-1.3594-2.8633-2.8516-3.0977-4.4375-0.003906-0.042969-0.03125-0.070313-0.039062-0.11328-0.007813-0.042968 0.003906-0.085937-0.003907-0.125l-2.3828-9.4062c6.9102 4.3711 17.812 7.457 30.574 7.457z"/>
  <path d="m423.59 555.8c0.30859-4.3672 0.023437-8.625-0.84766-12.621-1.1289-5.5469-1.3828-11.395-0.76562-17.379 0.28125-2.8047-1.3359-5.5-3.8086-6.4961-1.5977-0.75391-3.4414-0.75781-5.0469-0.023437-9.7227 4.3047-19.238 10.719-28.328 18.938-3.4961-2.6992-7.7773-4.125-12.312-3.7891-4.4336 0.3125-8.5 2.2578-11.574 5.293-10.164-6.9102-20.418-11.98-30.551-14.977-1.8477-0.49609-3.6992-0.19531-5.2148 0.84766-2.2109 1.5-3.2695 4.2344-2.6367 6.7578 1.3789 5.9453 1.8789 11.781 1.5117 17.312-0.33984 4.1523-0.070313 8.4102 0.80078 12.668 1.1328 5.3281 1.4023 11.176 0.81641 17.344-0.25 2.3008 0.71094 4.4961 2.5781 5.8594 1.1016 0.80859 2.3867 1.2227 3.6875 1.2227 0.85156 0 1.7148-0.17969 2.5391-0.53906 9.6523-4.2734 19.133-10.645 28.238-18.844 3.1719 2.4062 7.0078 3.7773 11.09 3.7773 0.38281 0 0.76172-0.007813 1.1758-0.039063 4.4688-0.31641 8.5781-2.2969 11.668-5.3789 10.16 6.9414 20.441 12.027 30.598 15.004 0.59375 0.17188 1.1836 0.25391 1.7773 0.25391 1.582 0 3.1211-0.60547 4.3125-1.7461 1.668-1.5898 2.3398-3.8789 1.8008-6.1133-1.418-5.9336-1.9219-11.758-1.5078-17.332z"/>
  <path d="m522.81 252.87c0 2.6133 2.1211 4.7344 4.7344 4.7344s4.7344-2.1211 4.7344-4.7344v-16.605h-9.4727z"/>
  <path d="m532.28 210.19c0-2.6133-2.1211-4.7344-4.7344-4.7344s-4.7344 2.1211-4.7344 4.7344v16.605h9.4727z"/>
  <path d="m548.89 226.8h-16.605v9.4727h16.605c2.6133 0 4.7344-2.1211 4.7344-4.7344 0-2.6172-2.1211-4.7383-4.7344-4.7383z"/>
  <path d="m506.21 226.8c-2.6133 0-4.7344 2.1211-4.7344 4.7344s2.1211 4.7344 4.7344 4.7344h16.605v-9.4727z"/>
  <path d="m219.72 502.24c0 2.6133 2.1211 4.7344 4.7344 4.7344s4.7344-2.1211 4.7344-4.7344l0.003906-16.602h-9.4727z"/>
  <path d="m229.19 459.55c0-2.6133-2.1211-4.7344-4.7344-4.7344s-4.7344 2.1211-4.7344 4.7344v16.605h9.4727z"/>
  <path d="m250.53 480.9c0-2.6133-2.1211-4.7344-4.7344-4.7344h-16.605v9.4727h16.605c2.6133 0 4.7344-2.1211 4.7344-4.7383z"/>
  <path d="m203.12 476.16c-2.6133 0-4.7344 2.1211-4.7344 4.7344 0 2.6133 2.1211 4.7344 4.7344 4.7344l16.602 0.003907v-9.4727z"/>
 </g>
</svg>
